<svg xmlns="http://www.w3.org/2000/svg" width="545.7" height="497" viewBox="0 0 545.7 497"><g transform="translate(0.819)"><g transform="translate(105.926)"><g transform="translate(107.204 177.548)" fill="#c5e6df" stroke="#707070" stroke-width="1"><ellipse cx="109.686" cy="114.33" rx="109.686" ry="114.33" stroke="none"/><ellipse cx="109.686" cy="114.33" rx="109.186" ry="113.83" fill="none"/></g><g transform="matrix(0.899, -0.438, 0.438, 0.899, 160.674, 381.12)" fill="#201a24" stroke="#707070" stroke-width="1"><ellipse cx="101.612" cy="56.522" rx="101.612" ry="56.522" stroke="none"/><ellipse cx="101.612" cy="56.522" rx="101.112" ry="56.022" fill="none"/></g><g transform="translate(86.537 249.078) rotate(50)" fill="#201a24" stroke="#707070" stroke-width="1"><ellipse cx="101.56" cy="56.483" rx="101.56" ry="56.483" stroke="none"/><ellipse cx="101.56" cy="56.483" rx="101.06" ry="55.983" fill="none"/></g><g transform="translate(111.915 56.493)" fill="#f0d1ce" stroke="#707070" stroke-width="1"><ellipse cx="91.517" cy="87.765" rx="91.517" ry="87.765" stroke="none"/><ellipse cx="91.517" cy="87.765" rx="91.017" ry="87.265" fill="none"/></g><g transform="translate(99.802 151.992)" fill="#fff" stroke="#707070" stroke-width="3"><ellipse cx="41.721" cy="34.972" rx="41.721" ry="34.972" stroke="none"/><ellipse cx="41.721" cy="34.972" rx="40.221" ry="33.472" fill="none"/></g><g transform="translate(183.244 151.992)" fill="#fff" stroke="#707070" stroke-width="3"><ellipse cx="41.721" cy="34.972" rx="41.721" ry="34.972" stroke="none"/><ellipse cx="41.721" cy="34.972" rx="40.221" ry="33.472" fill="none"/></g><g transform="translate(111.915 227.177) rotate(-8)" fill="#f0d1ce" stroke="#707070" stroke-width="1"><ellipse cx="18.849" cy="94.829" rx="18.849" ry="94.829" stroke="none"/><ellipse cx="18.849" cy="94.829" rx="18.349" ry="94.329" fill="none"/></g><g transform="translate(284.821 218.753) rotate(16)" fill="#f0d1ce" stroke="#707070" stroke-width="1"><ellipse cx="18.826" cy="94.828" rx="18.826" ry="94.828" stroke="none"/><ellipse cx="18.826" cy="94.828" rx="18.326" ry="94.328" fill="none"/></g><g transform="translate(19.725 349.716)" fill="#f6f5f6" stroke="#707070" stroke-width="1"><rect width="246.961" height="127.781" stroke="none"/><rect x="0.5" y="0.5" width="245.961" height="126.781" fill="none"/></g><g transform="translate(19.725 477.497)" fill="#f6f5f6" stroke="#707070" stroke-width="1"><rect width="246.961" height="19.503" stroke="none"/><rect x="0.5" y="0.5" width="245.961" height="18.503" fill="none"/></g><path d="M4683.381-763c-4.055,13.347,3.15,5.213,0,17.866s4.084,13.557,4.084,13.557" transform="translate(-4479.949 940.548)" fill="none" stroke="#707070" stroke-width="5"/><path d="M4683.381-763c-4.055,13.347,3.15,5.213,0,17.866s4.084,13.557,4.084,13.557" transform="translate(-4570.192 940.548)" fill="none" stroke="#707070" stroke-width="5"/><path d="M4683.381-763c-4.055,13.347,3.15,5.213,0,17.866s4.084,13.557,4.084,13.557" transform="translate(-4462.5 940.548)" fill="none" stroke="#707070" stroke-width="5"/><path d="M4683.381-763c-4.055,13.347,3.15,5.213,0,17.866s4.084,13.557,4.084,13.557" transform="translate(-4552.743 940.548)" fill="none" stroke="#707070" stroke-width="5"/><path d="M4683.381-763c-4.055,13.347,3.15,5.213,0,17.866s4.084,13.557,4.084,13.557" transform="translate(-4446.101 940.548)" fill="none" stroke="#707070" stroke-width="5"/><path d="M4683.381-763c-4.055,13.347,3.15,5.213,0,17.866s4.084,13.557,4.084,13.557" transform="translate(-4536.343 940.548)" fill="none" stroke="#707070" stroke-width="5"/><g transform="translate(106.195 378.298)"><path d="M38.429,77.707a38.04,38.04,0,0,1-26.486-10.7,235.848,235.848,0,0,0,28.494-8.157c9.45-3.552,14.344-6.924,14.544-10.023.415-6.44-5.209-15.739-9.729-23.21-3.708-6.13-6.637-10.972-5.21-12.351,1.264-1.222,5.668-4.694,13.089-10.32a38.3,38.3,0,0,1,9.584,5.8A39.1,39.1,0,0,1,65.6,66.327a38.28,38.28,0,0,1-12.215,8.327A37.827,37.827,0,0,1,38.429,77.707ZM8.53,63.264h0A39.1,39.1,0,0,1,11.256,11.38,38.281,38.281,0,0,1,23.471,3.053,37.829,37.829,0,0,1,38.429,0a38.316,38.316,0,0,1,7.617.763C37.606,4.486,32.365,7.829,30.467,10.7c-1.005,1.522-.832,3.344.545,5.734a48.4,48.4,0,0,0,5.405,6.9A64.852,64.852,0,0,1,42.352,30.8c1.847,2.894,2.659,5.411,2.484,7.695A7.968,7.968,0,0,1,43.8,41.823a12.159,12.159,0,0,1-2.816,3.256,91.659,91.659,0,0,1-14.6,9.406C21.309,57.244,15.3,60.2,8.53,63.264Z" fill="#3663a7" stroke="#707070" stroke-width="1"/></g><path d="M0,12.566,5.159,10.21,27.516,0" transform="translate(265.676 167.848)" fill="none" stroke="#707070" stroke-width="3"/><path d="M11.709,0C12.656,14.245,0,11.714,0,11.714" transform="translate(293.166 180.414) rotate(-107)" fill="none" stroke="#707070" stroke-width="3"/><g transform="matrix(0.914, 0.407, -0.407, 0.914, 125.414, 218.753)" fill="#c5e6df" stroke="#707070" stroke-width="1"><rect width="48.439" height="29.584" stroke="none"/><rect x="0.5" y="0.5" width="47.439" height="28.584" fill="none"/></g><g transform="translate(262.001 236.01) rotate(-19)" fill="#c5e6df" stroke="#707070" stroke-width="1"><rect width="48.452" height="29.602" stroke="none"/><rect x="0.5" y="0.5" width="47.452" height="28.602" fill="none"/></g><g transform="translate(196.702)" fill="#201a24" stroke="#707070" stroke-width="1"><ellipse cx="30.954" cy="28.246" rx="30.954" ry="28.246" stroke="none"/><ellipse cx="30.954" cy="28.246" rx="30.454" ry="27.746" fill="none"/></g><path d="M4542.239-869.786s27.509-13.747,85.584-9.164,100.866,29.021,100.866,29.021l9.169-29.021s-33.622-84.007-85.583-84.007-74.886,16.8-93.225,33.6S4542.239-869.786,4542.239-869.786Z" transform="translate(-4432.172 999.303)" fill="#3663a7" stroke="#201a24" stroke-width="2"/></g><text transform="translate(50.22 321.235) rotate(25)" fill="#201a24" font-size="32" font-family="SegoeUI, Segoe UI"><tspan x="-25.391" y="0">tika</tspan></text><text transform="translate(483.979 197.416) rotate(-25)" fill="#201a24" font-size="32" font-family="SegoeUI, Segoe UI"><tspan x="-25.391" y="0">tika</tspan></text><text transform="matrix(0.946, 0.326, -0.326, 0.946, 439.416, 478.446)" fill="#201a24" font-size="32" font-family="SegoeUI, Segoe UI"><tspan x="-25.391" y="0">tika</tspan></text><text transform="matrix(0.819, -0.574, 0.574, 0.819, 40.554, 417.851)" fill="#201a24" font-size="32" font-family="SegoeUI, Segoe UI"><tspan x="-25.391" y="0">tika</tspan></text><text transform="translate(517.681 294.821) rotate(-18)" fill="#201a24" font-size="32" font-family="SegoeUI, Segoe UI"><tspan x="-25.391" y="0">tika</tspan></text></g></svg>