<svg xmlns="http://www.w3.org/2000/svg" width="66.858" height="67.707" viewBox="0 0 66.858 67.707"><g transform="translate(0.5 0.5)"><path d="M32.929,66.707a32.565,32.565,0,0,1-22.695-9.187,201.81,201.81,0,0,0,24.416-7c8.1-3.049,12.291-5.944,12.462-8.6.356-5.529-4.464-13.511-8.337-19.924-3.178-5.262-5.688-9.419-4.465-10.6,1.083-1.049,4.857-4.03,11.216-8.86A32.807,32.807,0,0,1,53.739,7.5,33.7,33.7,0,0,1,63.27,46.336a33.271,33.271,0,0,1-7.057,10.6,32.8,32.8,0,0,1-10.467,7.148A32.362,32.362,0,0,1,32.929,66.707Zm-25.62-12.4h0A33.752,33.752,0,0,1,2.588,20.371a33.269,33.269,0,0,1,7.057-10.6A32.8,32.8,0,0,1,20.112,2.621,32.364,32.364,0,0,1,32.929,0a32.774,32.774,0,0,1,6.527.655c-7.232,3.2-11.723,6.066-13.349,8.531-.862,1.306-.713,2.871.467,4.922a41.536,41.536,0,0,0,4.632,5.92,55.656,55.656,0,0,1,5.085,6.407c1.582,2.485,2.279,4.645,2.129,6.605a6.849,6.849,0,0,1-.887,2.862A10.433,10.433,0,0,1,35.12,38.7a78.526,78.526,0,0,1-12.51,8.074C18.259,49.141,13.111,51.677,7.309,54.308Z" fill="#fff" stroke="#707070" stroke-width="1"/></g></svg>